<?xml version="1.0" encoding="utf-8"?><!-- Uploaded to: SVG Repo, www.svgrepo.com, Generator: SVG Repo Mixer Tools -->
<svg width="800px" height="800px" viewBox="0 0 24 24" xmlns="http://www.w3.org/2000/svg" fill="none"><path stroke="#000000" stroke-linecap="round" stroke-linejoin="round" stroke-width="2" d="M3 18V9a2 2 0 0 1 2-2h.93a2 2 0 0 0 1.664-.89l.812-1.22A2 2 0 0 1 10.07 4h3.86a2 2 0 0 1 1.664.89l.812 1.22A2 2 0 0 0 18.07 7H19a2 2 0 0 1 2 2v9a2 2 0 0 1-2 2H5a2 2 0 0 1-2-2z"/><circle cx="12" cy="13" r="3" stroke="#000000" stroke-linecap="round" stroke-linejoin="round" stroke-width="2"/></svg>